<svg xmlns="http://www.w3.org/2000/svg" version="1.1" xmlns:xlink="http://www.w3.org/1999/xlink" xmlns:svgjs="http://svgjs.com/svgjs" width="66" height="39"><svg width="66" height="39" viewBox="0 0 66 39" fill="none" xmlns="http://www.w3.org/2000/svg">
<path d="M14.096 20.816C14.096 19.92 13.6 19.104 12.608 18.368C11.616 17.6 10.096 16.688 8.048 15.632C6.384 14.768 5.04 14.016 4.016 13.376C2.992 12.736 2.112 12 1.376 11.168C0.672 10.304 0.32 9.376 0.32 8.384C0.32 7.232 0.8 6 1.76 4.688C2.72 3.376 3.904 2.272 5.312 1.376C6.72 0.48 8.032 0.0319996 9.248 0.0319996C10.72 0.0319996 12.416 0.223999 14.336 0.607998C16.288 0.959999 17.696 1.36 18.56 1.808V9.2H16.736C15.712 7.216 14.528 5.68 13.184 4.592C11.84 3.472 10.464 2.912 9.056 2.912C8.064 2.912 7.264 3.184 6.656 3.728C6.048 4.24 5.744 4.896 5.744 5.696C5.744 6.688 6.256 7.584 7.28 8.384C8.336 9.152 9.92 10.064 12.032 11.12C13.664 11.952 14.976 12.672 15.968 13.28C16.96 13.888 17.792 14.608 18.464 15.44C19.168 16.24 19.52 17.136 19.52 18.128C19.52 19.312 19.008 20.56 17.984 21.872C16.992 23.152 15.76 24.24 14.288 25.136C12.848 26.032 11.52 26.48 10.304 26.48C8.736 26.48 6.864 26.304 4.688 25.952C2.544 25.568 1.008 25.152 0.08 24.704V17.312H1.904C3.024 19.296 4.352 20.848 5.888 21.968C7.424 23.056 8.976 23.6 10.544 23.6C11.6 23.6 12.448 23.328 13.088 22.784C13.76 22.24 14.096 21.584 14.096 20.816Z" fill="#FF7563"></path>
<path d="M46.4765 3.824C47.3725 5.104 47.8205 6.544 47.8205 8.144C47.8205 9.552 47.4205 10.944 46.6205 12.32C45.8205 13.664 44.7485 14.848 43.4045 15.872C42.0605 16.896 40.5885 17.664 38.9885 18.176C38.1245 19.04 37.6925 19.952 37.6925 20.912C37.6925 21.456 38.1085 21.968 38.9405 22.448C39.8045 22.896 41.0685 23.44 42.7325 24.08C45.0045 24.976 46.7485 25.792 47.9645 26.528C49.2125 27.296 49.8365 28.224 49.8365 29.312C49.8365 30.272 49.2125 31.504 47.9645 33.008C46.7485 34.512 45.2285 35.824 43.4045 36.944C41.5805 38.064 39.8205 38.624 38.1245 38.624C36.3325 38.624 34.2045 38.32 31.7405 37.712C29.3085 37.104 27.2765 36.496 25.6445 35.888V28.496H27.4685C29.2605 30.704 31.0845 32.384 32.9405 33.536C34.7965 34.688 36.8925 35.264 39.2285 35.264C40.0925 35.264 40.8765 35.088 41.5805 34.736C42.3165 34.384 42.8765 33.936 43.2605 33.392C43.6765 32.88 43.8845 32.384 43.8845 31.904C43.8845 31.04 43.3885 30.288 42.3965 29.648C41.4045 29.04 39.8525 28.288 37.7405 27.392C35.7245 26.56 34.2205 25.84 33.2285 25.232C32.2685 24.624 31.7885 23.92 31.7885 23.12C31.7885 22.352 32.3005 21.568 33.3245 20.768C34.3485 19.968 35.5645 19.264 36.9725 18.656C36.4605 18.752 35.9325 18.8 35.3885 18.8C33.6925 18.8 32.1405 18.432 30.7325 17.696C29.3245 16.928 28.2045 15.92 27.3725 14.672C26.5725 13.424 26.1725 12.064 26.1725 10.592C26.1725 8.832 26.7805 7.136 27.9965 5.504C29.2125 3.872 30.7805 2.56 32.7005 1.568C34.6525 0.544 36.6365 0.0319996 38.6525 0.0319996C40.8925 0.0319996 42.8605 0.671999 44.5565 1.952H52.0925L52.1405 3.824H46.4765ZM38.1725 14.672C39.6125 14.672 40.7005 14.32 41.4365 13.616C42.2045 12.88 42.5885 11.808 42.5885 10.4C42.5885 8.48 41.9645 6.928 40.7165 5.744C39.5005 4.56 37.8845 3.968 35.8685 3.968C34.4605 3.968 33.3725 4.32 32.6045 5.024C31.8685 5.696 31.5005 6.736 31.5005 8.144C31.5005 10.096 32.1085 11.68 33.3245 12.896C34.5725 14.08 36.1885 14.672 38.1725 14.672ZM62.1556 18.56C63.1156 18.56 63.8996 18.912 64.5076 19.616C65.1476 20.32 65.4676 21.2 65.4676 22.256C65.4676 22.992 65.2436 23.696 64.7956 24.368C64.3476 25.008 63.7876 25.52 63.1156 25.904C62.4436 26.288 61.7876 26.48 61.1476 26.48C60.1876 26.48 59.3876 26.128 58.7476 25.424C58.1396 24.72 57.8356 23.84 57.8356 22.784C57.8356 22.048 58.0596 21.36 58.5076 20.72C58.9556 20.048 59.5156 19.52 60.1876 19.136C60.8596 18.752 61.5156 18.56 62.1556 18.56Z" fill="#181818"></path>
</svg><style>@media (prefers-color-scheme: light) { :root { filter: none; } }
</style></svg>