<svg width="55" height="105" viewBox="0 0 55 105" fill="none" xmlns="http://www.w3.org/2000/svg">
<path d="M54.0673 103.182C53.5175 103.736 52.7696 104.051 51.9877 104.055C51.2044 104.062 50.4515 103.747 49.9082 103.182L0.86969 54.1412C0.313347 53.5921 0 52.8435 0 52.0617C0 51.2798 0.313347 50.5312 0.86969 49.9821L49.9082 0.93246C50.453 0.35001 51.2109 0.0134497 52.0082 0.00039576C52.8061 -0.0126604 53.5742 0.297795 54.1386 0.862103C54.7022 1.4257 55.0133 2.19457 54.9996 2.99177C54.9865 3.78893 54.6499 4.54691 54.0675 5.09172L7.10868 52.0617L54.0675 99.0205C54.6217 99.571 54.9328 100.32 54.9328 101.101C54.9328 101.881 54.6217 102.63 54.0675 103.18L54.0673 103.182Z" fill="black"/>
</svg>
