<svg width="55" height="105" viewBox="0 0 55 105" fill="none" xmlns="http://www.w3.org/2000/svg">
<path d="M0.932727 103.182C1.48253 103.736 2.23038 104.051 3.01226 104.055C3.79564 104.062 4.54853 103.747 5.09178 103.182L54.1303 54.1412C54.6867 53.5921 55 52.8435 55 52.0617C55 51.2798 54.6867 50.5312 54.1303 49.9821L5.09178 0.93246C4.54705 0.35001 3.78907 0.0134497 2.99183 0.00039576C2.19394 -0.0126604 1.4258 0.297795 0.861422 0.862103C0.29782 1.4257 -0.0133392 2.19457 0.000438861 2.99177C0.0134952 3.78893 0.350054 4.54691 0.932503 5.09172L47.8913 52.0617L0.932503 99.0205C0.378334 99.571 0.0671566 100.32 0.0671566 101.101C0.0671566 101.881 0.378334 102.63 0.932503 103.18L0.932727 103.182Z" fill="black"/>
</svg>
